<svg xmlns="http://www.w3.org/2000/svg" viewBox="0 0 512 512">
  <defs>
    <linearGradient id="g" x1="0" y1="0" x2="1" y2="1">
      <stop offset="0" stop-color="#4a68b6"/>
      <stop offset="1" stop-color="#283356"/>
    </linearGradient>
  </defs>
  <rect width="512" height="512" rx="120" fill="url(#g)"/>
  <g fill="none" stroke="#ffffff" stroke-width="20" stroke-linecap="round" stroke-linejoin="round">
    <path d="M170 186c-26 0-48 22-48 48v22c0 32 22 58 54 64v22c0 22 18 40 40 40h6"/>
    <path d="M342 186c26 0 48 22 48 48v22c0 32-22 58-54 64v22c0 22-18 40-40 40h-6"/>
    <path d="M256 130c-26 0-48 18-54 48-6 26 10 54 48 60"/>
    <path d="M256 130c26 0 48 18 54 48 6 26-10 54-48 60"/>
    <circle cx="200" cy="266" r="12" fill="#ffffff" stroke="none"/>
    <circle cx="312" cy="266" r="12" fill="#ffffff" stroke="none"/>
  </g>
</svg>
