<svg xmlns="http://www.w3.org/2000/svg" viewBox="0 0 192 192">
  <defs>
    <linearGradient id="g" x1="0" y1="0" x2="1" y2="1">
      <stop offset="0" stop-color="#4a68b6"/>
      <stop offset="1" stop-color="#283356"/>
    </linearGradient>
  </defs>
  <rect width="192" height="192" rx="44" fill="url(#g)"/>
  <g fill="none" stroke="#ffffff" stroke-width="8" stroke-linecap="round" stroke-linejoin="round">
    <path d="M64 70c-10 0-18 8-18 18v8c0 12 8 22 20 24v8c0 8 7 14 15 14h2"/>
    <path d="M128 70c10 0 18 8 18 18v8c0 12-8 22-20 24v8c0 8-7 14-15 14h-2"/>
    <path d="M96 50c-10 0-18 7-20 18-2 9 4 20 18 22"/>
    <path d="M96 50c10 0 18 7 20 18 2 9-4 20-18 22"/>
    <circle cx="76" cy="100" r="4" fill="#ffffff" stroke="none"/>
    <circle cx="116" cy="100" r="4" fill="#ffffff" stroke="none"/>
  </g>
</svg>
